<?xml version="1.0" encoding="UTF-8"?>
<svg data-bbox="0 0 918 173" xmlns="http://www.w3.org/2000/svg" viewBox="0 0 918 173" height="173" width="918" data-type="color">
    <g>
        <path fill="#1D1D1B" d="M367.305 83.44c10.042 8.982 16.111 22.157 16.111 36.539 0 27.966-22.244 51.557-51.303 51.557l-83.867-.007a2.414 2.414 0 0 1-1.693-.69 2.372 2.372 0 0 1-.711-1.672V3.819c.007-.618.256-1.21.695-1.65a2.425 2.425 0 0 1 1.656-.712h78.448c28.153 0 51.294 22.943 51.294 51.135 0 15.504-7.369 26.965-10.573 30.192-.148.15-.212.456-.057.655Zm-80.642-46.8v32.613h37.164a16.571 16.571 0 0 0 10.443-5.366 16.281 16.281 0 0 0 4.191-10.89c0-9.015-7.38-16.358-16.458-16.358h-35.347.007Zm39.061 99.697c9.086 0 16.468-7.336 16.468-16.358a16.269 16.269 0 0 0-4.189-10.891 16.568 16.568 0 0 0-10.445-5.365h-40.902v32.614h39.068ZM2.401 171.529c-.636 0-1.247-.25-1.698-.696A2.367 2.367 0 0 1 0 169.151V3.836c0-1.298 1.048-2.339 2.351-2.372h35.66a2.393 2.393 0 0 1 2.34 2.382V169.16c0 1.307-1.075 2.375-2.401 2.375H2.385l.016-.007ZM142.895 173c-47.996 0-87.04-38.802-87.04-86.5 0-15.903 4.366-30.797 11.923-43.616 3.5-5.306 4.753-5.17 8.027-2.013l24.351 24.253c-.303.616-.618 1.248-.907 1.887A47.115 47.115 0 0 0 95.03 86.5c0 26.226 21.479 47.565 47.868 47.565 26.389 0 47.868-21.339 47.868-47.565s-21.479-47.568-47.868-47.568a47.765 47.765 0 0 0-17.317 3.24 45.323 45.323 0 0 0-3.896 1.704L99.971 22.13c-5.592-5.616-7.194-6.381.289-11A87.008 87.008 0 0 1 142.912 0c47.995 0 87.05 38.805 87.05 86.5 0 47.698-39.055 86.5-87.05 86.5h-.017Zm758.6-13.996h5.777v-35.825h-5.777v35.825Zm-10.704-8.417c-.772 2.382-2.586 4.211-6.045 4.211-3.594 0-6.483-2.628-6.617-6.287h17.734c.067-.1.168-.899.168-1.83 0-7.619-4.366-12.543-11.856-12.543-6.113 0-11.789 5.024-11.789 12.643 0 8.15 5.844 12.908 12.427 12.908 5.844 0 9.673-3.427 10.949-7.619l-4.87-1.53-.101.047Zm-12.527-6.282c.201-2.571 2.283-5.343 5.944-5.343 3.997 0 5.878 2.495 5.979 5.323h-11.89l-.033.02Zm-28.784 8.168c.302 2.721 2.989 7.269 10.009 7.269 6.18 0 9.169-4.059 9.169-7.718 0-3.56-2.385-6.331-6.986-7.319l-3.661-.746c-1.478-.266-2.419-1.231-2.419-2.495 0-1.464 1.445-2.761 3.494-2.761 3.257 0 4.299 2.229 4.5 3.626l4.904-1.364c-.403-2.362-2.586-6.72-9.371-6.72-5.004 0-8.9 3.559-8.9 7.785 0 3.327 2.25 6.088 6.549 7.019l3.594.799c1.948.399 2.855 1.397 2.855 2.695 0 1.497-1.243 2.761-3.628 2.761-3.09 0-4.702-1.93-4.903-4.092l-5.038 1.397-.168-.136Zm-16.525 2.768c-2.284 0-3.527-1.484-3.527-3.117 0-1.98 1.445-2.971 3.258-3.261l6.348-.948v1.091c0 4.701-2.788 6.235-6.012 6.235h-.067Zm-9.304-2.768c0 3.809 3.158 7.269 8.229 7.269 3.93 0 6.315-1.979 7.49-3.806 0 1.93.202 2.928.269 3.094h5.374c-.034-.233-.303-1.663-.303-3.859v-11.977c0-4.791-2.821-8.983-10.311-8.983-5.945 0-9.74 3.727-10.21 7.885l5.307 1.198c.268-2.395 1.948-4.325 5.004-4.325 3.191 0 4.601 1.63 4.601 3.66 0 .865-.403 1.53-1.78 1.73l-6.213.931c-4.131.599-7.322 2.994-7.322 7.286l-.135-.103Zm-22.066 1.484v-10.194h6.281c3.694 0 5.743 2.129 5.743 5.147 0 3.094-2.317 5.023-5.911 5.023h-6.079l-.034.024Zm0-15.191v-9.801h5.273c3.661 0 5.743 1.929 5.743 4.904 0 2.914-2.082 4.897-5.575 4.897h-5.441Zm-5.911-14.845v35.083h13.031c6.583 0 10.983-4.059 10.983-9.698 0-4.159-2.586-7.373-6.314-8.364 3.056-1.088 5.239-3.859 5.239-7.572 0-5.49-3.963-9.449-10.747-9.449h-12.192Zm-32.512 44.831 15.45-33.845h-6.117l-6.529 15.237-6.972-15.237h-6.516l10.351 21.226-5.827 12.619h6.173-.013Zm-25.996-15.737c-3.762 0-6.315-2.621-6.315-6.827 0-4.092 2.654-6.753 6.348-6.753 3.594 0 6.247 2.661 6.247 6.787 0 4.158-2.519 6.853-6.213 6.853l-.067-.06Zm-12.192 7.319c.671 4.858 5.138 8.817 11.553 8.817 9.102 0 12.461-5.989 12.461-12.423v-21.825h-5.575v3.061c-1.041-1.996-3.359-3.526-7.154-3.526-6.684 0-11.218 5.289-11.218 11.71 0 6.787 4.735 11.711 11.218 11.711 3.526 0 5.978-1.63 7.019-3.526v2.495c0 4.89-2.284 7.219-6.851 7.219-3.325 0-5.676-2.229-6.08-5.19l-5.306 1.364-.067.113Zm-16.424-26.172c-7.222 0-12.528 5.389-12.528 12.765 0 7.419 5.34 12.815 12.561 12.815 7.289 0 12.595-5.389 12.595-12.815 0-7.373-5.306-12.765-12.595-12.765h-.033Zm0 20.437c-3.527 0-6.751-2.695-6.751-7.685 0-4.991 3.258-7.586 6.784-7.586 3.594 0 6.785 2.562 6.785 7.552 0 5.057-3.191 7.652-6.751 7.652l-.067.067Zm-23.881 4.391h5.777v-35.827h-5.777v35.827Zm-18.17-24.852c-7.221 0-12.561 5.39-12.561 12.742 0 7.419 5.34 12.809 12.561 12.809 7.288 0 12.629-5.39 12.629-12.842 0-7.386-5.341-12.775-12.595-12.775l-.034.066Zm0 20.428c-3.527 0-6.784-2.695-6.784-7.686 0-4.99 3.257-7.585 6.784-7.585 3.594 0 6.785 2.562 6.785 7.552 0 5.057-3.191 7.685-6.785 7.685v.034Zm-48.398 4.391v-14.272c0-3.094 1.948-5.357 5.038-5.357 3.291 0 4.702 2.163 4.702 4.957v14.672h5.676v-14.272c0-2.995 2.015-5.357 5.038-5.357 3.258 0 4.702 2.129 4.702 4.957v14.705h5.575v-15.636c0-6.388-4.198-9.149-8.564-9.149-3.131 0-5.979 1.098-7.866 4.258-1.293-2.828-4.088-4.258-7.268-4.258-2.738 0-5.777 1.297-7.171 3.759v-3.061h-5.542v24.087h5.723l-.043-.033Zm-18.977 0h5.777v-35.794h-5.777v35.831-.037Zm-18.674-3.759c-2.284 0-3.527-1.497-3.527-3.128 0-1.996 1.444-2.994 3.224-3.26l6.348-.965v1.098c0 4.691-2.787 6.221-6.012 6.221l-.033.034Zm-9.304-2.795c0 3.793 3.157 7.253 8.229 7.253 3.963 0 6.348-1.996 7.49-3.826 0 1.929.201 2.927.269 3.061h5.373c-.033-.233-.302-1.697-.302-3.86v-11.973c0-4.791-2.821-8.993-10.311-8.993-5.978 0-9.74 3.706-10.21 7.865l5.306 1.198c.235-2.396 1.935-4.325 4.971-4.325 3.177 0 4.568 1.63 4.568 3.659 0 .865-.403 1.531-1.797 1.73l-6.234.932c-4.131.599-7.322 2.994-7.322 7.286l-.03-.007Zm-21.294-7.619c.101-3.094 1.847-5.456 5.038-5.456 3.661 0 4.971 2.362 4.971 5.323v14.24h5.811v-15.168c0-5.29-2.889-9.548-8.867-9.548-2.553 0-5.273.891-6.919 3.017v-14.039h-5.78v35.831h5.776v-14.14l-.03-.06Zm-16.021-17.333h-5.206v3.626c0 2.13-1.142 3.76-3.728 3.76h-1.242v5.09h4.5v12.11c0 4.491 2.788 7.153 7.265 7.153 2.092 0 3.191-.399 3.527-.566V153.9c-.246.033-1.186.2-1.982.2-2.15 0-3.09-.899-3.09-3.028v-11.178h5.028v-5.09h-5.038v-7.353h-.034Zm-30.127 17.3c.101-3.094 1.847-5.456 5.038-5.456 3.627 0 4.971 2.362 4.971 5.323v14.239h5.777v-15.134c0-5.29-2.889-9.548-8.867-9.548-2.519 0-5.273.888-6.919 3.014v-14.04h-5.777v35.831h5.777v-14.229Zm-17.129 2.063c0 4.591-2.687 7.585-6.516 7.585-3.795 0-6.516-2.994-6.516-7.585 0-4.492 2.754-7.486 6.549-7.486 3.886 0 6.516 2.994 6.516 7.486h-.033Zm-13.002 21.462v-12.11c1.243 1.83 3.886 3.317 7.376 3.317 6.979 0 11.406-5.443 11.406-12.666 0-7.119-4.03-12.562-11.201-12.562-3.728 0-6.516 1.73-7.698 3.792v-3.26h-5.592v33.555h5.709v-.066Zm-47.491-26.948c0 11.527 8.665 18.298 17.935 18.298s17.969-6.767 17.969-18.298c0-11.478-8.699-18.265-17.969-18.265-9.236 0-17.902 6.787-17.902 18.265h-.033Zm6.126 0c0-8.467 5.878-12.676 11.806-12.676 5.978 0 11.856 4.205 11.856 12.666 0 8.46-5.878 12.675-11.856 12.675-5.945 0-11.823-4.215-11.823-12.675l.017.01Zm255.595-40.655h5.777V64.942h-5.777v35.831-.1Zm-18.674-3.76c-2.284 0-3.527-1.487-3.527-3.117 0-1.99 1.444-2.978 3.245-3.277l6.324-.932v1.078c0 4.701-2.788 6.235-6.029 6.235l-.013.013Zm-9.304-2.771c0 3.826 3.141 7.286 8.219 7.286 3.93 0 6.348-1.983 7.49-3.813 0 1.93.201 2.928.269 3.061h5.373c-.033-.233-.268-1.663-.268-3.826V84.873c0-4.79-2.822-8.983-10.311-8.983-5.979 0-9.741 3.727-10.211 7.885l5.273 1.191c.269-2.428 1.948-4.358 4.971-4.358 3.191 0 4.602 1.653 4.602 3.66 0 .865-.403 1.563-1.781 1.753l-6.213.931c-4.131.6-7.322 2.961-7.322 7.263l-.091-.073Zm-14.744-13.008c3.694 0 5.34 2.375 5.877 4.501l5.19-1.883c-1.008-3.86-4.602-7.918-11.118-7.918-6.986 0-12.393 5.33-12.393 12.755 0 7.32 5.407 12.809 12.528 12.809 6.381 0 10.009-4.102 11.15-7.862l-5.105-1.83c-.571 1.83-2.284 4.459-6.079 4.459-3.661 0-6.784-2.728-6.784-7.586 0-4.824 3.123-7.452 6.663-7.452l.071.007Zm-24.653-13.009c0 2.08 1.703 3.713 3.748 3.713 2.096 0 3.786-1.63 3.786-3.71a3.756 3.756 0 0 0-3.762-3.759c-2.049 0-3.728 1.67-3.728 3.76l-.044-.004Zm.907 32.571h5.733V76.609h-5.713v24.097l-.02-.01Zm-22.806-13.907c0-3.177 1.747-5.689 5.028-5.689 3.661 0 5.005 2.363 5.005 5.33v14.239h5.777V85.502c0-5.29-2.822-9.548-8.766-9.548-2.687 0-5.576 1.13-7.188 3.916v-3.221h-5.609v24.087h5.777V86.833l-.024-.044ZM578.66 68.125c0 2.076 1.692 3.71 3.728 3.71 2.092 0 3.782-1.63 3.782-3.706s-1.697-3.76-3.789-3.76c-2.032 0-3.728 1.664-3.728 3.76l.007-.004Zm.89 32.561h5.709V76.599h-5.719v24.11l.01-.023Zm-13.267 0h5.787V64.941h-5.777v35.832l-.01-.087Zm-21.059.732c9.021 0 14.392-5.69 15.987-11.611l-5.474-1.797c-1.196 3.96-4.585 7.719-10.513 7.719-6.022 0-11.695-4.358-11.695-12.576 0-8.507 5.844-12.709 11.655-12.709 5.944 0 9.236 3.407 10.277 7.665l5.643-1.896c-1.579-6.121-6.919-11.378-15.887-11.378-9.142 0-17.767 6.887-17.767 18.322 0 11.444 8.329 18.264 17.834 18.264l-.06-.003Zm-36.149-36.51h-5.643V79.48c-.739-1.53-2.889-3.46-7.12-3.46-6.819 0-11.554 5.69-11.554 12.62 0 7.275 4.688 12.721 11.654 12.721 3.443 0 5.979-1.67 7.121-3.7 0 .979.151 2.563.258 3.108h5.525c-.033-.399-.235-2.229-.235-4.425V64.938l-.006-.03Zm-18.53 23.708c0-4.591 2.787-7.519 6.583-7.519 3.778 0 6.381 2.881 6.381 7.486 0 4.604-2.653 7.718-6.438 7.718-3.93 0-6.516-3.06-6.516-7.675l-.01-.01Zm-26.685-1.763c0-3.174 1.747-5.69 5.031-5.69 3.648 0 4.971 2.363 4.971 5.334v14.272h5.797V85.532c0-5.29-2.821-9.548-8.766-9.548-2.687 0-5.575 1.13-7.154 3.892V76.65h-5.609v24.087h5.777V86.833l-.047.02ZM439.409 97c-2.297 0-3.537-1.497-3.537-3.127 0-1.98 1.444-2.962 3.241-3.26l6.315-.946v1.098c0 4.704-2.788 6.238-6.046 6.238l.027-.003Zm-9.314-2.781c0 3.812 3.144 7.272 8.219 7.272 3.93 0 6.314-1.973 7.456-3.802 0 1.93.202 2.917.269 3.06h5.374c-.034-.233-.303-1.673-.303-3.849V84.923c0-4.81-2.821-9.016-10.311-9.016-5.944 0-9.74 3.713-10.176 7.868l5.273 1.198c.235-2.429 1.948-4.358 4.971-4.358 3.19 0 4.601 1.663 4.601 3.66 0 .864-.403 1.563-1.79 1.763l-6.214.931c-4.131.599-7.322 2.994-7.322 7.286l-.047-.036ZM917.977 18.33a7.58 7.58 0 0 0-1.545-.153c-3.191 0-5.878 1.53-7.02 4.159v-3.86h-5.619v24.098h5.777V31.097c0-4.505 2.049-7.08 6.549-7.08.605 0 1.243.033 1.881.133v-5.852l-.023.033Zm-32.858 20.48c-2.284 0-3.527-1.483-3.527-3.116 0-1.997 1.444-2.961 3.224-3.26l6.348-.966v1.065c0 4.691-2.754 6.221-6.012 6.221l-.033.057Zm-9.304-2.77c0 3.809 3.157 7.276 8.229 7.276 3.963 0 6.348-1.963 7.49-3.793 0 1.93.201 2.928.268 3.094h5.374c-.033-.233-.302-1.664-.302-3.86V26.783c0-4.791-2.821-8.99-10.288-8.99-5.978 0-9.773 3.71-10.21 7.865l5.273 1.188c.235-2.429 1.948-4.358 4.971-4.358 3.191 0 4.568 1.63 4.568 3.66 0 .831-.403 1.53-1.78 1.73l-6.214.93c-4.165.6-7.322 2.962-7.322 7.253l-.057-.02Zm-11.655 6.53h5.777V6.741h-5.777v35.83Zm-12.93-2.67c0 .998.1 2.129.201 2.675h5.542a39.648 39.648 0 0 1-.235-4.405V18.474h-5.777v14.263c0 3.16-1.747 5.39-5.072 5.39-3.476 0-4.87-2.529-4.87-5.49V18.464h-5.777v15.191c0 5.35 3.393 9.602 9.163 9.602 2.845 0 5.676-1.188 6.885-3.367l-.06.01Zm-31.807-16.868c3.694 0 5.307 2.372 5.878 4.498l5.189-1.88c-.994-3.859-4.588-7.917-11.107-7.917-6.97 0-12.407 5.356-12.407 12.775 0 7.32 5.441 12.809 12.551 12.809 6.365 0 10.009-4.093 11.151-7.852l-5.092-1.83c-.537 1.83-2.284 4.458-6.079 4.458-3.628 0-6.765-2.695-6.765-7.552 0-4.857 3.138-7.452 6.684-7.452l-.003-.057Zm-21.261 11.132c-.789 2.362-2.586 4.192-6.065 4.192-3.594 0-6.483-2.628-6.63-6.288H803.2c.041-.1.142-.898.142-1.83 0-7.618-4.387-12.542-11.857-12.542-6.122 0-11.789 5.024-11.789 12.642 0 8.151 5.811 12.909 12.394 12.909 5.827 0 9.663-3.427 10.949-7.619l-4.88-1.53.003.066Zm-12.561-6.288c.202-2.595 2.284-5.356 5.911-5.356 3.997 0 5.878 2.528 5.979 5.323h-11.89v.033Zm-17.28 14.672h5.777V6.72h-5.777v35.831-.003Zm-18.204-24.852c-7.215 0-12.545 5.39-12.545 12.742 0 7.42 5.323 12.809 12.538 12.809 7.275 0 12.595-5.423 12.595-12.842 0-7.386-5.32-12.776-12.595-12.776l.007.067Zm0 20.427c-3.527 0-6.768-2.661-6.768-7.685 0-5.024 3.224-7.585 6.761-7.585 3.594 0 6.774 2.595 6.774 7.585 0 5.057-3.19 7.685-6.784 7.685h.017ZM731.6 42.515V7.485h-8.128l-11.298 26.772-11.47-26.771h-7.96V42.57h5.844V16.834l10.899 25.737h5.182l11.007-25.833v25.85h5.934l-.01-.073Zm-58.38-30.87c1.101 0 1.746.146 2.096.245V6.993c-.397-.2-1.592-.499-3.033-.499-4.988 0-8.464 3.267-8.464 8.667v3.31h-4.242v4.997h4.232v19.103h5.81V23.468h5.609v-4.997h-5.642v-3.167c0-2.971 2.048-3.66 3.583-3.66h.051Zm-28.929 6.088c-7.221 0-12.561 5.39-12.561 12.765 0 7.419 5.307 12.815 12.528 12.815 7.255 0 12.595-5.423 12.595-12.842 0-7.386-5.34-12.775-12.595-12.775l.033.037Zm0 20.433c-3.56 0-6.784-2.671-6.784-7.668 0-5 3.224-7.572 6.751-7.572 3.56 0 6.751 2.595 6.751 7.585 0 5.057-3.191 7.685-6.751 7.685l.033-.03Zm-33.721-4.005c-.806 2.372-2.586 4.205-6.079 4.205-3.594 0-6.482-2.628-6.65-6.288h17.734c.033-.1.134-.891.134-1.83 0-7.618-4.4-12.519-11.856-12.519-6.146 0-11.789 5.024-11.789 12.643 0 8.15 5.811 12.908 12.394 12.908 5.81 0 9.639-3.427 10.949-7.619l-4.904-1.53.067.03Zm-12.561-6.288c.201-2.568 2.284-5.346 5.911-5.346 3.963 0 5.878 2.528 5.979 5.356h-11.924l.034-.01Zm-14.745-16.774h-5.239v3.613c0 2.129-1.142 3.76-3.728 3.76h-1.243v5.096h4.467V35.69c0 4.502 2.788 7.18 7.255 7.18 2.082 0 3.19-.4 3.526-.546v-4.757c-.653.125-1.316.194-1.981.206-2.15 0-3.09-.898-3.09-3.021V23.568h5.038V18.47h-5.038V11.1h.033Zm-20.286 28.798c0 .998.101 2.129.201 2.674h5.509a37.73 37.73 0 0 1-.269-4.404V18.47h-5.777v14.256c0 3.16-1.746 5.39-5.072 5.39-3.493 0-4.87-2.529-4.87-5.49V18.464h-5.777v15.191c0 5.35 3.359 9.602 9.136 9.602 2.821 0 5.676-1.188 6.852-3.367l.067.007Zm-26.802-28.798h-5.206v3.613c0 2.129-1.142 3.76-3.762 3.76h-1.243v5.096h4.501V35.69c0 4.502 2.821 7.18 7.288 7.18 2.083 0 3.191-.4 3.527-.546v-4.757c-.235.053-1.176.206-1.982.206-2.116 0-3.09-.898-3.09-3.021V23.568h5.038V18.47h-5.038V11.1h-.033Zm-21.429-1.088c0 2.062 1.68 3.693 3.728 3.693 2.083 0 3.762-1.63 3.762-3.727a3.78 3.78 0 0 0-3.795-3.792c-2.049 0-3.728 1.663-3.728 3.76l.033.066Zm.907 32.537h5.71V18.464h-5.743v24.097l.033-.013Zm-10.949-31.473h-5.24v3.627c0 2.129-1.142 3.76-3.728 3.76h-1.242v5.09h4.467v12.11c0 4.49 2.787 7.185 7.254 7.185 2.083 0 3.191-.399 3.527-.565v-4.758c-.269.067-1.209.2-2.015.2-2.15 0-3.09-.898-3.09-3.027V23.555h5.038v-5.09h-5.038v-7.366l.067-.024Zm-32.243 24.919c.302 2.728 2.989 7.253 10.008 7.253 6.18 0 9.17-4.06 9.17-7.719 0-3.56-2.385-6.354-6.986-7.319l-3.695-.765c-1.478-.3-2.418-1.264-2.418-2.529 0-1.497 1.444-2.794 3.493-2.794 3.231 0 4.272 2.229 4.474 3.593l4.876-1.397c-.403-2.363-2.606-6.72-9.37-6.72-5.032 0-8.921 3.559-8.921 7.75 0 3.328 2.25 6.09 6.516 7.02l3.577.8c1.948.398 2.845 1.396 2.845 2.667 0 1.497-1.243 2.782-3.628 2.782-3.073 0-4.735-1.93-4.937-4.093l-5.014 1.398.01.073Zm-20.656-7.386c0-3.16 1.746-5.689 5.038-5.689 3.627 0 4.971 2.362 4.971 5.323v14.24h5.776V27.313c0-5.29-2.854-9.548-8.766-9.548-2.687 0-5.575 1.13-7.154 3.909v-3.227h-5.642v24.1h5.777V28.608ZM431.99 42.515h6.079V7.485h-6.079v35.083-.053Z" clip-rule="evenodd" fill-rule="evenodd" data-color="1"/>
    </g>
</svg>
