<svg width="81" height="81" viewBox="0 0 81 81" fill="none" xmlns="http://www.w3.org/2000/svg">
<path fill-rule="evenodd" clip-rule="evenodd" d="M28.9299 20.7127C28.9299 20.7127 32.0607 15.3444 35.9078 19.5497C39.7549 23.755 37.9051 25.2466 44.706 26.8563C51.5048 28.4659 51.4753 31.5082 50.7906 34.0427C50.1037 36.5773 46.7054 41.5284 39.9045 39.5901C33.1057 37.6518 24.3074 29.9575 28.9299 20.7127Z" stroke="#0E161B" stroke-width="0.75" stroke-miterlimit="22.9256"/>
<path fill-rule="evenodd" clip-rule="evenodd" d="M30.371 22.4967C30.371 22.4967 33.0299 18.1419 36.2976 21.5529C39.5653 24.9638 37.9957 26.1732 43.7706 27.4815C49.5455 28.7878 49.5202 31.257 48.9387 33.3133C48.3551 35.3696 45.4687 39.3874 39.6938 37.8135C33.919 36.2397 26.446 29.9971 30.3731 22.4967H30.371Z" fill="#0E161B"/>
<path d="M36.4134 21.4455L36.1837 21.6625L35.8867 21.3718L35.5959 21.1253L35.3094 20.9188L35.0292 20.7524L34.7553 20.6217L34.4898 20.5248L34.2307 20.4574L33.9779 20.4195L33.7314 20.4068L33.4912 20.4174L33.2573 20.4511L33.0298 20.5038L32.8086 20.5754L32.5958 20.6639L32.3893 20.765L32.1913 20.8788L32.0016 21.0031L31.8205 21.1358L31.6498 21.2728L31.4897 21.4139L31.3401 21.5572L31.201 21.6983L31.0725 21.8374L30.9566 21.9701L30.8534 22.0965L30.7628 22.2124L30.6849 22.3157L30.6196 22.4063L30.569 22.48L30.5332 22.5348L30.5121 22.5685L30.5058 22.579L30.2361 22.4168L30.2445 22.402L30.2677 22.3641L30.3077 22.3051L30.3625 22.2272L30.4299 22.1324L30.5121 22.0228L30.6069 21.9006L30.7165 21.7679L30.8387 21.6288L30.9735 21.4834L31.121 21.3339L31.279 21.1843L31.4497 21.0347L31.6308 20.8872L31.8226 20.7461L32.0269 20.6133L32.2418 20.489L32.4673 20.3774L32.7011 20.2804L32.9455 20.2004L33.1983 20.1414L33.4617 20.1035L33.7335 20.0908L34.0116 20.1056L34.296 20.1498L34.5868 20.2257L34.8817 20.3352L35.1809 20.4785L35.4843 20.6597L35.7919 20.8809L36.1016 21.1421L36.4134 21.4476V21.4455ZM43.8063 27.3279L43.7368 27.6355L43.2143 27.5133L42.7318 27.3911L42.2873 27.2668L41.8786 27.1425L41.5036 27.016L41.1601 26.8875L40.8462 26.7569L40.5576 26.6242L40.2942 26.4872L40.054 26.3461L39.8349 26.2007L39.6327 26.0511L39.4473 25.8973L39.2766 25.7372L39.1186 25.5728L38.9711 25.4022L38.8321 25.2273L38.6993 25.0461L38.5708 24.8586L38.4423 24.6648L38.3138 24.4646L38.181 24.2561L38.0441 24.0412L37.8987 23.8178L37.7428 23.584L37.5743 23.3417L37.391 23.0889L37.1908 22.8255L36.9717 22.5516L36.7315 22.2651L36.4682 21.968L36.1774 21.6583L36.4071 21.4413L36.702 21.7573L36.9717 22.0607L37.2161 22.3536L37.4394 22.6338L37.6438 22.9035L37.8292 23.1605L37.9999 23.407L38.1579 23.643L38.3054 23.8705L38.4444 24.0875L38.575 24.294L38.7014 24.492L38.8257 24.6816L38.95 24.8628L39.0765 25.0356L39.2071 25.1999L39.344 25.358L39.4894 25.5096L39.6474 25.6571L39.8181 25.8004L40.0056 25.9394L40.2099 26.0743L40.4354 26.207L40.684 26.3355L40.96 26.4619L41.2634 26.5884L41.5963 26.7127L41.9628 26.8349L42.3631 26.957L42.8014 27.0792L43.2775 27.2014L43.7958 27.3236L43.8063 27.3279ZM49.0903 33.3556L48.7869 33.2713L48.8396 33.0817L48.8881 32.8899L48.9302 32.6961L48.966 32.5023L48.9955 32.3085L49.0166 32.1125L49.0292 31.9166L49.0313 31.7227L49.0229 31.5289L49.0039 31.3351L48.9723 31.1434L48.9281 30.9516L48.8691 30.762L48.7954 30.5745L48.7069 30.387L48.6015 30.2016L48.4772 30.0183L48.334 29.8371L48.1717 29.658L47.9884 29.4811L47.782 29.3062L47.5523 29.1334L47.2974 28.9649L47.0172 28.7984L46.7096 28.6362L46.3746 28.4782L46.0122 28.3244L45.6203 28.1769L45.1969 28.0337L44.7418 27.8967L44.2551 27.7661L43.7347 27.6418L43.8042 27.3342L44.3331 27.4606L44.8282 27.5933L45.2917 27.7324L45.7257 27.8777L46.1302 28.0294L46.5052 28.1875L46.8528 28.3518L47.1731 28.5203L47.468 28.6952L47.7377 28.8743L47.9821 29.0576L48.2033 29.2451L48.4035 29.4368L48.5805 29.6328L48.7364 29.8329L48.8733 30.0352L48.9913 30.2416L49.0903 30.4502L49.1725 30.6609L49.2378 30.8716L49.2863 31.0844L49.32 31.2972L49.341 31.51L49.3495 31.7206L49.3453 31.9313L49.3326 32.142L49.3094 32.3506L49.2778 32.5571L49.2399 32.7614L49.1957 32.9637L49.1451 33.1638L49.0924 33.3619L49.0903 33.3556ZM39.6516 37.9654L39.7359 37.662L40.2605 37.7905L40.7683 37.8895L41.2592 37.959L41.7332 37.9991L42.1904 38.0138L42.6307 38.0033L43.0563 37.9675L43.465 37.9085L43.8569 37.8284L44.234 37.7294L44.5943 37.6114L44.9398 37.4766L45.2706 37.327L45.5866 37.1626L45.8858 36.9857L46.1702 36.796L46.4399 36.5959L46.6948 36.3873L46.935 36.1703L47.1626 35.947L47.3753 35.7194L47.5734 35.4877L47.7567 35.2538L47.9252 35.0179L48.0811 34.784L48.2223 34.5501L48.3487 34.3205L48.4625 34.0951L48.5615 33.876L48.6479 33.6653L48.7216 33.463L48.7806 33.2713L49.084 33.3556L49.0208 33.562L48.9428 33.7769L48.8523 34.0003L48.7469 34.2299L48.6268 34.4659L48.4941 34.7061L48.3466 34.9504L48.1844 35.1948L48.0074 35.4413L47.8157 35.6857L47.6092 35.928L47.388 36.1661L47.152 36.4L46.8992 36.6275L46.6316 36.8466L46.3493 37.0552L46.0501 37.2532L45.7362 37.4386L45.4054 37.6114L45.0599 37.7694L44.6975 37.9106L44.3183 38.0328L43.9243 38.136L43.5135 38.2182L43.0858 38.2793L42.6434 38.3172L42.1841 38.3298L41.7079 38.3151L41.217 38.273L40.7093 38.2013L40.1847 38.1002L39.6432 37.9675L39.6516 37.9654ZM30.2361 22.4168L30.5058 22.579L30.51 22.5706L30.1792 23.2595L29.9138 23.94L29.7094 24.6121L29.5619 25.2737L29.4713 25.9247L29.4355 26.5652L29.4503 27.1951L29.5135 27.8124L29.6251 28.4192L29.781 29.0133L29.9791 29.5948L30.2171 30.1616L30.4931 30.7157L30.8029 31.255L31.1463 31.7775L31.5213 32.2853L31.9237 32.7762L32.3514 33.2481L32.8044 33.7032L33.2784 34.1393L33.7714 34.5565L34.2792 34.9526L34.8017 35.3276L35.3368 35.6815L35.8804 36.0144L36.4303 36.3241L36.9844 36.6106L37.5406 36.8719L38.0968 37.11L38.6488 37.3228L39.1965 37.5082L39.7359 37.6683L39.6516 37.9717L39.0996 37.8094L38.5392 37.6198L37.9746 37.4028L37.4078 37.1605L36.8411 36.893L36.2765 36.6022L35.716 36.2883L35.1619 35.9512L34.6184 35.5909L34.0853 35.2075L33.567 34.803L33.0656 34.3774L32.5831 33.9328L32.1217 33.4672L31.6835 32.9826L31.2706 32.4791L30.8871 31.9587L30.5332 31.4215L30.2129 30.8674L29.9285 30.2964L29.6841 29.7086L29.4797 29.106L29.3196 28.4908L29.2037 27.8609L29.1363 27.2183L29.1216 26.5631L29.1595 25.8973L29.2522 25.221L29.4039 24.5363L29.6167 23.841L29.8927 23.1394L30.2319 22.4294L30.2361 22.421V22.4168ZM30.2319 22.4252L30.234 22.421L30.2361 22.4168L30.2319 22.4252Z" fill="#0E161B"/>
<path d="M33.013 17.9439L33.0446 17M36.3124 20.0929L36.7843 19.2754M38.2949 22.7833L39.0976 22.284M50.3103 29.6327L51.113 29.1334M27.8196 30.9094L28.6223 30.4101M28.5781 21.4644L27.7754 20.9651M50.9149 36.2082L50.1122 35.7088M51.9621 33.1237L51.0224 33.0268M37.3447 38.6353L37.094 39.5454M45.8564 39.5222L46.1808 40.4092M43.838 25.6634L43.3324 26.4619M32.2735 35.3317L31.6014 35.9954" stroke="#0E161B" stroke-width="0.75" stroke-miterlimit="22.9256" stroke-linecap="round"/>
<path d="M31.124 58.9093C31.124 58.9093 31.223 56.577 26.1771 53.2166C21.1312 49.8583 20.3685 48.8638 19.2603 45.4233C18.1521 41.9807 17.1429 39.9624 19.1444 39.3345C21.146 38.7067 21.7085 41.039 22.0077 41.8333C22.3047 42.6275 22.4712 45.8215 24.8709 47.2942C27.2706 48.7669 29.6197 50.2396 29.6197 50.2396" stroke="#0E161B" stroke-width="0.75" stroke-miterlimit="22.9256"/>
<path d="M39.1994 58.9746C39.1994 58.9746 38.9192 51.0655 36.1382 49.5928C33.3593 48.1201 29.1729 45.3727 29.1729 45.3727C29.1729 45.3727 27.8035 44.7828 26.8638 45.4254C25.7746 46.1712 25.7851 47.9326 27.2494 48.7606" stroke="#0E161B" stroke-width="0.75" stroke-miterlimit="22.9256"/>
<path d="M20.7583 39.562C20.7583 39.562 22.2205 37.9755 23.8596 39.1174C25.4987 40.2593 23.3076 45.971 24.6096 47.1192" stroke="#0E161B" stroke-width="0.75" stroke-miterlimit="22.9256"/>
<path d="M38.9677 58.8418H31.2567C30.8366 58.8418 30.4961 59.1823 30.4961 59.6024V63.5085C30.4961 63.9285 30.8366 64.269 31.2567 64.269H38.9677C39.3878 64.269 39.7283 63.9285 39.7283 63.5085V59.6024C39.7283 59.1823 39.3878 58.8418 38.9677 58.8418Z" fill="#0E161B"/>
<path d="M49.2506 58.9093C49.2506 58.9093 49.1516 56.577 54.1975 53.2166C59.2434 49.8583 60.0061 48.8638 61.1143 45.4233C62.2225 41.9807 63.2317 39.9624 61.2302 39.3345C59.2287 38.7067 58.6661 41.039 58.367 41.8333C58.0699 42.6275 57.9035 45.8215 55.5038 47.2942C53.1041 48.7669 50.7549 50.2396 50.7549 50.2396" stroke="#0E161B" stroke-width="0.75" stroke-miterlimit="22.9256"/>
<path d="M41.175 58.9746C41.175 58.9746 41.4553 51.0655 44.2363 49.5928C47.0152 48.1201 51.2016 45.3727 51.2016 45.3727C51.2016 45.3727 52.571 44.7828 53.5107 45.4254C54.5999 46.1712 54.5894 47.9326 53.1251 48.7606" stroke="#0E161B" stroke-width="0.75" stroke-miterlimit="22.9256"/>
<path d="M59.6143 39.562C59.6143 39.562 58.1521 37.9755 56.513 39.1174C54.8738 40.2593 57.065 45.971 55.7629 47.1192" stroke="#0E161B" stroke-width="0.75" stroke-miterlimit="22.9256"/>
<path d="M49.1157 58.8418H41.4046C40.9846 58.8418 40.644 59.1823 40.644 59.6024V63.5085C40.644 63.9285 40.9846 64.269 41.4046 64.269H49.1157C49.5357 64.269 49.8763 63.9285 49.8763 63.5085V59.6024C49.8763 59.1823 49.5357 58.8418 49.1157 58.8418Z" fill="#0E161B"/>
</svg>
