<svg width="81" height="81" viewBox="0 0 81 81" fill="none" xmlns="http://www.w3.org/2000/svg">
<path d="M60.5929 24.2695H19.1772C18.527 24.2695 18 24.7966 18 25.4467V54.6791C18 55.3293 18.527 55.8563 19.1772 55.8563H60.5929C61.2431 55.8563 61.7701 55.3293 61.7701 54.6791V25.4467C61.7701 24.7966 61.2431 24.2695 60.5929 24.2695Z" stroke="#0E161B" stroke-width="0.754111" stroke-miterlimit="22.9256"/>
<path fill-rule="evenodd" clip-rule="evenodd" d="M30.9729 28.2556H22.3621V26.9775H30.9729V28.2556ZM60.5929 24.2695H19.1772C18.5296 24.2695 18 24.7992 18 25.4467V30.9627H61.7701V25.4467C61.7701 24.7992 61.2405 24.2695 60.5929 24.2695Z" fill="#0E161B"/>
<path d="M31.4527 13C31.4527 13 33.2577 14.053 31.8287 16.2341C30.3997 18.4151 30.5506 18.6411 30.7382 20.2952M30.7382 20.2952L29.5815 19.0635M30.7382 20.2952L31.7349 19.1198" stroke="#0E161B" stroke-width="0.4" stroke-miterlimit="22.9256"/>
<path d="M40.3575 13C40.3575 13 42.1625 14.053 40.7335 16.2341C39.3044 18.4151 39.4554 18.6411 39.6429 20.2952M39.6429 20.2952L38.4863 19.0635M39.6429 20.2952L40.6397 19.1198" stroke="#0E161B" stroke-width="0.4" stroke-miterlimit="22.9256"/>
<path d="M49.2618 13C49.2618 13 51.0668 14.053 49.6378 16.2341C48.2087 18.4151 48.3597 18.6411 48.5472 20.2952M48.5472 20.2952L47.3906 19.0635M48.5472 20.2952L49.544 19.1198" stroke="#0E161B" stroke-width="0.4" stroke-miterlimit="22.9256"/>
<path d="M31.4527 53.7051C31.4527 53.7051 33.2577 54.7581 31.8287 56.9391C30.3997 59.1202 30.5506 59.3461 30.7382 61.0002M30.7382 61.0002L29.5815 59.7686M30.7382 61.0002L31.7349 59.8249" stroke="#0E161B" stroke-width="0.4" stroke-miterlimit="22.9256"/>
<path d="M40.3575 53.7051C40.3575 53.7051 42.1625 54.7581 40.7335 56.9391C39.3044 59.1202 39.4554 59.3461 39.6429 61.0002M39.6429 61.0002L38.4863 59.7686M39.6429 61.0002L40.6397 59.8249" stroke="#0E161B" stroke-width="0.4" stroke-miterlimit="22.9256"/>
<path d="M49.2618 53.7051C49.2618 53.7051 51.0668 54.7581 49.6378 56.9391C48.2087 59.1202 48.3597 59.3461 48.5472 61.0002M48.5472 61.0002L47.3906 59.7686M48.5472 61.0002L49.544 59.8249" stroke="#0E161B" stroke-width="0.4" stroke-miterlimit="22.9256"/>
<path d="M53.1121 22.6265H26.6582V25.4845H53.1121V22.6265Z" fill="#0E161B"/>
<path d="M20 56V71M60 56V71" stroke="#0E161B" stroke-width="0.75"/>
<path d="M43.9585 43.7524V45.8186" stroke="#0E161B" stroke-width="0.2"/>
<rect x="29" y="47.9668" width="20" height="3.63636" rx="0.5" fill="#0E161B"/>
<rect x="30.6528" y="35.1567" width="0.909091" height="14.7107" rx="0.1" fill="#0E161B"/>
<rect x="46.2725" y="43.2559" width="0.909091" height="6.69422" rx="0.1" fill="#0E161B"/>
<path d="M31.2725 35.2808H35.6725" stroke="#0E161B" stroke-width="0.2"/>
<rect x="34.5376" y="34" width="1.32231" height="3.30579" fill="#0E161B"/>
<rect x="32.8018" y="47.5537" width="4.71074" height="0.413223" fill="#0E161B"/>
<rect x="31.2314" y="43.6694" width="15.2066" height="0.27" fill="#0E161B"/>
<circle cx="43.9587" cy="46.7654" r="0.165289" fill="#0E161B"/>
</svg>
