<svg width="204" height="204" xmlns="http://www.w3.org/2000/svg" xmlns:xlink="http://www.w3.org/1999/xlink" xml:space="preserve" overflow="hidden"><g transform="translate(-267 -169)"><path d="M343.326 276.33C344.085 279.64 344.5 276.524 344.541 276.172 344.541 276.163 344.541 276.154 344.545 276.145 344.545 276.14 344.545 276.14 344.545 276.14 347.296 253.213 361.498 246.426 372.065 244.61 372.444 244.543 372.824 244.484 373.194 244.434 376.883 243.676 372.079 242.298 372.079 242.298 353.144 237.078 346.925 223.788 344.929 214.431 344.929 214.431 343.769 209.996 343.006 212.674 342.97 212.823 342.933 212.972 342.897 213.126 340.531 222.591 333.418 237.128 312.126 242.732 311.855 242.804 311.58 242.872 311.304 242.944 310.193 243.265 308.631 243.892 311.237 244.349 311.86 244.407 312.515 244.489 313.196 244.583 323.524 246.078 339.551 252.332 343.326 276.334L343.326 276.33Z" fill="#00BFB8" fill-rule="evenodd"/><path d="M402.339 301.018C402.989 303.854 403.346 301.181 403.382 300.883 403.382 300.874 403.382 300.869 403.387 300.86 403.387 300.856 403.387 300.856 403.387 300.856 405.744 281.207 417.914 275.395 426.968 273.837 427.294 273.783 427.619 273.729 427.935 273.684 431.096 273.034 426.982 271.855 426.982 271.855 410.757 267.384 405.428 255.991 403.717 247.975 403.717 247.975 402.723 244.177 402.068 246.471 402.036 246.598 402.005 246.729 401.973 246.86 399.946 254.97 393.854 267.43 375.605 272.23 375.37 272.293 375.136 272.352 374.901 272.41 373.948 272.686 372.607 273.223 374.842 273.612 375.379 273.666 375.94 273.729 376.522 273.815 385.373 275.093 399.106 280.453 402.339 301.023L402.339 301.018Z" fill="#00BFB8" fill-rule="evenodd"/><path d="M361.561 334.146C362.103 336.508 362.401 334.282 362.428 334.033 362.428 334.029 362.428 334.02 362.433 334.015L362.433 334.011C364.397 317.645 374.535 312.804 382.077 311.504 382.348 311.458 382.618 311.413 382.88 311.377 385.513 310.835 382.086 309.855 382.086 309.855 368.57 306.13 364.131 296.642 362.708 289.963 362.708 289.963 361.882 286.797 361.335 288.707 361.308 288.816 361.286 288.92 361.259 289.028 359.57 295.784 354.494 306.161 339.293 310.162 339.099 310.212 338.905 310.262 338.706 310.311 337.912 310.542 336.796 310.989 338.657 311.314 339.104 311.359 339.569 311.413 340.057 311.481 347.431 312.547 358.87 317.013 361.561 334.146Z" fill="#00BFB8" fill-rule="evenodd"/></g></svg>