<svg width="67" height="67" xmlns="http://www.w3.org/2000/svg" xmlns:xlink="http://www.w3.org/1999/xlink" xml:space="preserve" overflow="hidden"><defs><clipPath id="clip0"><rect x="572" y="930" width="67" height="67"/></clipPath></defs><g clip-path="url(#clip0)" transform="translate(-572 -930)"><path d="M19.399 25.0313C19.399 25.0313 25.3215 14.8791 32.5976 22.8313 39.8735 30.7847 36.3764 33.6045 49.2369 36.6496 62.0973 39.696 62.041 45.4482 60.7438 50.2425 59.4466 55.0369 53.0157 64.4002 40.1566 60.734 27.2961 57.0678 10.6581 42.5157 19.4003 25.0313L19.399 25.0313Z" stroke="#0E161B" stroke-width="0.990576" stroke-miterlimit="22.9256" fill="none" fill-rule="evenodd" transform="matrix(1 0 0 1.02277 568.251 919.958)"/><path d="M22.1249 28.407C22.1249 28.407 27.1547 20.1707 33.3351 26.6228 39.5155 33.0749 36.5442 35.3626 47.4677 37.8342 58.3899 40.3059 58.3422 44.9725 57.2404 48.8628 56.1385 52.7519 50.6769 60.3485 39.7547 57.3746 28.8325 54.3996 14.6999 42.5935 22.1249 28.4083L22.1249 28.407Z" fill="#0E161B" fill-rule="evenodd" transform="matrix(1 0 0 1.02277 568.251 919.958)"/><path d="M27.1247 19.7952 27.1836 18.0084M33.364 23.8582 34.258 22.3106M37.1141 28.9455 38.6317 28.0015M59.8374 41.8999 61.355 40.9559M17.3007 44.3152 18.8183 43.3712M18.7356 26.4513 17.218 25.5072M60.9794 54.3347 59.4618 53.3905M62.9602 48.5035 61.1822 48.322M35.3135 58.9311 34.839 60.654M51.4082 60.6103 52.0218 62.2881M47.5917 34.3997 46.6339 35.9086M25.7186 52.6844 24.4464 53.9389" stroke="#0E161B" stroke-width="0.990576" stroke-linecap="round" stroke-miterlimit="22.9256" fill="none" transform="matrix(1 0 0 1.02277 568.251 919.958)"/><path d="M72.3485 1.05056 7.82836 1.05056C4.05196 1.05056 0.990576 4.11193 0.990576 7.88834L0.990576 72.4084C0.990576 76.1848 4.05196 79.2462 7.82836 79.2462L72.3485 79.2462C76.1249 79.2462 79.1862 76.1848 79.1862 72.4084L79.1862 7.88834C79.1862 4.11193 76.1249 1.05056 72.3485 1.05056Z" stroke="#0E161B" stroke-width="0.990576" stroke-miterlimit="22.9256" fill="none" transform="matrix(1 0 0 1.02277 568.251 919.958)"/></g></svg>