<svg width="81" height="81" viewBox="0 0 81 81" fill="none" xmlns="http://www.w3.org/2000/svg">
<path fill-rule="evenodd" clip-rule="evenodd" d="M19.5836 25.2694C19.5836 25.2694 25.5624 15.0207 32.9077 23.0485C40.2529 31.0776 36.7225 33.9242 49.7053 36.9983C62.6881 40.0737 62.6312 45.8806 61.3217 50.7205C60.0122 55.5605 53.5201 65.0129 40.5386 61.3118C27.5558 57.6107 10.7595 42.9202 19.5849 25.2694H19.5836Z" stroke="#0E161B" stroke-miterlimit="22.9256"/>
<path fill-rule="evenodd" clip-rule="evenodd" d="M22.3354 28.6773C22.3354 28.6773 27.413 20.3626 33.6522 26.8761C39.8914 33.3896 36.8919 35.699 47.9193 38.1942C58.9454 40.6894 58.8973 45.4004 57.785 49.3277C56.6726 53.2538 51.159 60.9226 40.1329 57.9205C29.1068 54.9172 14.8398 42.9987 22.3354 28.6786V28.6773Z" fill="#0E161B"/>
<path d="M27.3828 19.9835L27.4422 18.1797M33.6814 24.0852L34.5839 22.5229M37.4672 29.2209L38.9992 28.2679M60.4067 42.2985L61.9387 41.3455M17.4653 44.7368L18.9973 43.7838M18.9138 26.703L17.3818 25.7499M61.5595 54.8516L60.0275 53.8985M63.5592 48.965L61.7643 48.7817M35.6495 59.4918L35.1705 61.2311M51.8973 61.1869L52.5167 62.8807M48.0445 34.727L47.0776 36.2502M25.9633 53.1856L24.679 54.4521" stroke="#0E161B" stroke-miterlimit="22.9256" stroke-linecap="round"/>
<path d="M73.0368 1.06055H7.90284C4.09051 1.06055 1 4.15105 1 7.96339V73.0973C1 76.9096 4.09051 80.0001 7.90284 80.0001H73.0368C76.8491 80.0001 79.9396 76.9096 79.9396 73.0973V7.96339C79.9396 4.15105 76.8491 1.06055 73.0368 1.06055Z" stroke="#0E161B" stroke-miterlimit="22.9256"/>
</svg>
