<?xml version="1.0" encoding="UTF-8"?>
<svg data-bbox="1.402 25 491.021 313.487" xmlns="http://www.w3.org/2000/svg" viewBox="0 0 494 340" height="340" width="494" data-type="ugc">
    <g>
        <path stroke-miterlimit="22.926" stroke-width="2" stroke="#000000" d="M191.656 62.638c-1.425-5.356-.496-4.276-2.764-8.27-11.641.258-16.09 2.677-22.116 10.71-.238.323-.67 1.057-.886 1.338l-26.672 15.526c-2.333-4.859-3.175-8.918-5.529-13.798H114.38c-1.36 16.26-13.001 17.036-16.565 30.338 13.175 0 11.447-1.879 22.073-2.764-3.218 4.815-4.169 4.707-7.343 9.198-8.834 12.546-12.808 13.129-23.736 25.933-7.991 9.372-4.492 12.395-14.773 18.333-17.45 10.062-19.61 3.779-19.092 25.048.518 21.549-29.87 22.521-33.023 41.911l-6.868 23.04c11.469 15.655 5.53-2.224 5.53 27.596l-19.18 5.895c-.237 31.202 29.395 5.787 44.017 2.375-.54-24.055-1.88-5.053-6.933-14.316-10.54-19.304 37.968-21.55 51.1-21.55 5.334 11.531.064 4.988 1.684 10.883 1.404 5.139-.475-.324 2.117 4.858 7.256 14.468 3.542 10.473 1.511 16.778l-2.548 14.381c7.3 1.943 8.293 5.614 9.265 7.73l8.186 10.494c4.946 5.161 11.036 19.002 15.658 25.912 15.485-3.606 16.155-7.989 27.904-9.479 13.865-1.749 13.563-11.488 30.884-5.485 12.419 4.297 11.209 3.908 26.738 3.908 3.866-16.626 8.293-6.953 14.816-18.289l15.529-20.34c-1.966-8.443-4.298-10.603-8.272-16.562 20.28 0 15.636-9.544 26.197-20.708 5.551-5.873-.323-3.822 12.441-4.124-1.987 23.817-12.397 17.015 6.025 38.111 6.652 7.623 4.32 10.084 14.341 12.956l18.25 4.124c-1.166 14.122-2.095 3.736-5.529 16.562 9.071 6.068 12.311 3.11 15.248 13.604 1.555 5.549-2.549 12.524 15.097 13.992 1.987-8.572 3.52-7.989 5.529-16.562-9.914-14.791-14.104-13.042 10.237-42.171 21.489-25.717 9.503-29.841 9.071-48.865 17.947 1.49 4.946 7.558 16.565 2.764 0 19.952 6.134 29.388 22.073 33.102 13.628-1.77 9.74-16.022 33.109-16.561.885 10.515 8.919 32.346 22.461 22.564 9.438-6.823.54-9.134-1.123-15.374-.108-.41-.324-1.209-.367-1.641-.994-9.22 2.764-3.455 3.866-16.583l-7.019-1.836c-.303-.065-1.167-.259-1.447-.324l-2.571-.604c0-20.276.303-20.449 13.801-27.596 5.356 11.163 8.402 20.017 23.088 15.18 6.544-2.16 6.674-3.369 10.021-6.888-2.937-12.589-.583-9.89-11.036-11.034.389-17.534 7.429-31.44 11.036-46.9-7.257-4.859-7.732-6.37-16.565-11.034l-19.308 24.832c-9.266-.778-19.287-6.305-26.068-12.546-6.804-6.262-4.363-16.54-18.747-19.887-6.695-1.555-19.524-.669-26.932-.669 4.946-10.3-.022-24.551 8.574-38.328 3.369-5.42 3.585-6.672 10.734-8.594-.885-10.71-2.484-7.19-2.764-19.304-34.556-8.054-17.019-6.996-41.338-19.369-16.565-8.442-23.174-17.879-41.446-8.205-2.332-4.858-3.175-8.918-5.529-13.798-13.93 1.533-6.198 1.728-10.064 6.5-.259.324-.605 1.209-.972 1.77V26.728c-20.41 0-35.874-5.182-35.874 22.068 8.726 3.26 3.953-5.98 5.529 8.27-21.1 0-10.755-4.361-27.601-8.27-8.315 5.571-10.151 13.518-24.945 11.877-6.998-.778-.087-3.758-13.304-3.11-10.497.518-2.16 1.814-14.19 5.031z" clip-rule="evenodd" fill="none"/>
        <path fill="#000000" d="M232 174a9 9 0 1 1-18 0 9 9 0 0 1 18 0"/>
        <path stroke-width="2" stroke="#00BFB8" d="M272 174c0 27.062-21.938 49-49 49s-49-21.938-49-49 21.938-49 49-49 49 21.938 49 49z" fill="none"/>
        <path stroke-dasharray="20 20" stroke-width="2" stroke="#00BFB8" d="M372 174c0 82.29-66.71 149-149 149S74 256.29 74 174 140.71 25 223 25s149 66.71 149 149z" fill="none"/>
    </g>
</svg>
