<?xml version="1.0" encoding="UTF-8"?>
<svg data-bbox="0 0 18.734 20" xmlns="http://www.w3.org/2000/svg" viewBox="0 0 19 20" height="20" width="19" data-type="color">
    <g>
        <path fill="#00BFB8" d="M18.158 1.775C17.24.283 15.41-.363 13.826.204c-1.723.615-2.715 2.235-2.483 4.052.248 1.92-.753 3.843-2.44 4.524a6.023 6.023 0 0 0-3.928-.691l-.168.03c-.18.038-.355.086-.524.14l-.056.02a6.075 6.075 0 0 0-.888.378 8.416 8.416 0 0 0-.738.437c-.007.001-.012.007-.02.012a6.052 6.052 0 0 0-1.782 1.9c-.171.3-.318.614-.438.944l-.004.008a6.009 6.009 0 0 0-.344 1.655 6.002 6.002 0 0 0 3.323 5.775 5.929 5.929 0 0 0 2.242.599c3.29.217 6.128-2.289 6.344-5.595a6.007 6.007 0 0 0-.714-3.255c.118-1.497 1.053-2.881 2.502-3.451.384-.151.822-.202 1.237-.218 1.459-.05 2.612-.646 3.305-1.944.66-1.24.655-2.53-.094-3.749Z" data-color="1"/>
    </g>
</svg>
